<svg xmlns="http://www.w3.org/2000/svg" width="66" height="27" fill="none" viewBox="0 0 66 27" class="h-full w-full"><!----><path fill="#262626" d="M.252 10 2.136.28h2.196L6.204 10H4.368L4.02 7.864H2.484L2.112 10zm2.412-3.348h1.164L3.24 2.728zm7.216 3.48q-1.08 0-1.716-.408a2.16 2.16 0 0 1-.876-1.128q-.252-.732-.252-1.692V3.412q0-1.008.252-1.728.252-.732.876-1.128Q8.8.16 9.88.16q1.044 0 1.632.348.6.348.84.984.252.636.252 1.476v.816h-1.92v-.912q0-.336-.036-.624a.83.83 0 0 0-.204-.48q-.156-.192-.552-.192t-.576.192a.9.9 0 0 0-.228.504q-.048.3-.048.672V7.36q0 .408.06.72.072.3.252.468.192.156.54.156.384 0 .54-.18a.9.9 0 0 0 .204-.504 4 4 0 0 0 .048-.66v-.948h1.92v.804q0 .852-.24 1.512a2.06 2.06 0 0 1-.828 1.032q-.588.372-1.656.372M13.957 10V.28h1.98v3.996h1.716V.28h1.98V10h-1.98V5.692h-1.716V10zm6.811 0L22.652.28h2.196L26.72 10h-1.836l-.348-2.136H23L22.628 10zm2.412-3.348h1.164l-.588-3.924zM27.825 10V.28h2.52q.984 0 1.68.228.708.216 1.08.78.384.564.384 1.56 0 .6-.108 1.068a2 2 0 0 1-.36.804 1.75 1.75 0 0 1-.72.54L33.645 10h-2.028l-1.116-4.404h-.696V10zm1.98-5.58h.576q.48 0 .756-.156a.83.83 0 0 0 .384-.468q.12-.324.12-.792 0-.672-.252-1.02-.24-.36-.912-.36h-.672zM35.956 10V6.148L34.06.28h1.86l1.044 3.42.972-3.42h1.8l-1.872 5.868V10zm3.734 0L41.576.28h2.196L45.643 10h-1.836l-.348-2.136h-1.536L41.55 10zm2.413-3.348h1.164l-.588-3.924zM.915 26V13.85H4.77q1.095 0 1.785.42.69.405 1.02 1.185.345.78.345 1.89 0 1.305-.45 2.04-.435.735-1.2 1.05-.765.3-1.755.3H3.39V26zm2.475-7.005h.87q.54 0 .825-.165a.9.9 0 0 0 .405-.555q.105-.375.105-.96 0-.555-.09-.93a.92.92 0 0 0-.36-.585q-.285-.21-.9-.21H3.39zM9.341 26V13.85h3.15q1.23 0 2.1.285.885.27 1.35.975.48.705.48 1.95 0 .75-.135 1.335-.12.57-.45 1.005-.315.42-.9.675L16.616 26h-2.535l-1.395-5.505h-.87V26zm2.475-6.975h.72q.6 0 .945-.195t.48-.585q.15-.405.15-.99 0-.84-.315-1.275-.3-.45-1.14-.45h-.84zM17.637 26l2.354-12.15h2.746L25.077 26H22.78l-.434-2.67h-1.92L19.962 26zm3.014-4.185h1.456l-.735-4.905zm8.854 4.35q-1.125 0-1.875-.405a2.7 2.7 0 0 1-1.14-1.245q-.375-.84-.435-2.13l2.13-.36q.03.75.15 1.26.135.495.39.75.27.24.66.24.48 0 .645-.3.18-.3.18-.69 0-.765-.375-1.275-.36-.525-.96-1.05l-1.26-1.095a5.2 5.2 0 0 1-1.11-1.29q-.42-.72-.42-1.77 0-1.5.87-2.295.885-.81 2.415-.81.915 0 1.5.3t.9.81q.33.495.45 1.095.135.585.165 1.17l-2.115.315a8 8 0 0 0-.105-.975q-.06-.42-.27-.66-.195-.24-.6-.24-.435 0-.645.33-.21.315-.21.705 0 .645.285 1.065.3.405.81.855l1.23 1.08q.765.66 1.305 1.515.555.84.555 2.085 0 .855-.39 1.545t-1.095 1.08q-.69.39-1.635.39M34.109 26V13.85h2.474v4.995h2.145V13.85h2.475V26h-2.475v-5.385h-2.145V26zm8.514 0 2.355-12.15h2.745L50.063 26h-2.295l-.435-2.67h-1.92L44.948 26zm3.015-4.185h1.455l-.735-4.905zM51.444 26V13.85h1.725l2.7 6.33v-6.33h2.04V26h-1.65l-2.7-6.72V26zm9.596 0V15.695h-1.875V13.85h6.21v1.845H63.53V26z"></path><!----></svg>